<?xml version="1.0" encoding="utf-8"?>
<!-- Generator: Adobe Illustrator 27.9.6, SVG Export Plug-In . SVG Version: 9.03 Build 54986)  -->
<svg version="1.1" id="Capa_1" xmlns="http://www.w3.org/2000/svg" xmlns:xlink="http://www.w3.org/1999/xlink" x="0px" y="0px"
	 viewBox="0 0 800 600" style="enable-background:new 0 0 800 600;" xml:space="preserve">
<style type="text/css">
	.st0{fill:#0A0909;}
</style>
<image style="overflow:visible;" width="1360" height="768" xlink:href="ECD55EC1.jpg"  transform="matrix(1 0 0 1 -20 -114)">
</image>
<g id="Capa_1-2">
	<path class="st0" d="M474.7,536.8c-24,17.5-53.6,26.7-83.9,26.7c-500.4,4.2-398.9,44.6-408-404.8c0-42.1,38.1-76.2,85.2-76.2h480.2
		c23.4,0,44.5,8.4,59.9,22.1c13,11.5,12.4,23.4,25.3,53.5c16.1,37.7,24.1,40.4,32.8,62.4c2.1,5.3,21.1,55.6,3.1,100
		c-26.2,64.6-110.3,84.9-131,125.8c-11.3,22.4-12.3,36-30.2,58.6C498,517.8,486.5,528.3,474.7,536.8z"/>
</g>
</svg>
