<?xml version="1.0" encoding="UTF-8"?>
<svg id="Capa_2" data-name="Capa 2" xmlns="http://www.w3.org/2000/svg" viewBox="0 0 668.42 293.49">
  <defs>
    <style>
      .cls-1 {
        fill: #898989;
        stroke-width: 0px;
      }
    </style>
  </defs>
  <g id="Capa_1-2" data-name="Capa 1">
    <path class="cls-1" d="m633.76,285.46c-47.1,24.28-85.74-12.81-192.89-27.83-43.31-6.07-78.71-5.63-101.97-5.63-44.77,0-84.62.09-135.43,10.03-31.44,6.15-54.75,13.67-89.18,8.29-21.21-3.32-38.45-10.26-46.84-13.98-17.38-7.72-36.32-16.06-49.79-32.37C-1.49,200.8-.62,172.49.48,136.72,1.96,88.93,2.77,62.77,22.19,39.72,51.99,4.37,101.45,1.58,132.9.23c62.24-2.66,68.98,17.98,142.69,28.72,110.51,16.11,148.15-21.62,204.77,14.83,23.81,15.33,31.59,30.05,58.66,34.43,33.73,5.47,49.19-12.27,79.01-1.86,18.33,6.4,37.56,22.03,43.82,42.58,6.98,22.89-10.29,29.79-8,62.73,2.5,35.94,20.02,46.98,12.85,70.09-6.17,19.89-26.01,30.11-32.96,33.69Z"/>
  </g>
</svg>