<?xml version="1.0" encoding="utf-8"?>
<!-- Generator: Adobe Illustrator 27.9.6, SVG Export Plug-In . SVG Version: 9.03 Build 54986)  -->
<svg version="1.1" id="Capa_1" xmlns="http://www.w3.org/2000/svg" xmlns:xlink="http://www.w3.org/1999/xlink" x="0px" y="0px"
	 viewBox="0 0 800 600" style="enable-background:new 0 0 800 600;" xml:space="preserve">
<style type="text/css">
	.st0{fill:none;stroke:#0A0909;stroke-miterlimit:10;}
	.st1{fill:none;stroke:#0A0909;stroke-width:1.0231;stroke-miterlimit:10;}
	.st2{fill:none;stroke:#0A0909;stroke-width:1.1103;stroke-miterlimit:10;}
	.st3{fill:#0A0909;}
</style>
<image style="overflow:visible;" width="1360" height="768" xlink:href="ECD55EC3.jpg"  transform="matrix(1 0 0 1 -80 -94)">
</image>
<path class="st0" d="M644.5,472.5c-0.2-1.1-0.3-2.2-0.5-3.4"/>
<path class="st0" d="M741.5,424.5"/>
<path class="st1" d="M14.5,206.5c0-0.9,0-2,0-3.3"/>
<path class="st2" d="M761.5,173.5c-0.1,0-0.2,0-0.3,0"/>
<path class="st3" d="M561.7,164.3c9.8,9.9,15.9,12.8,17.6,13.6c21.5,9.9,37.3-2.3,65.9,3.3c8,1.5,18.4,4.1,28.2,10.8
	c31.4,21.5,30.1,80.5,10.9,119.4c-6.3,12.9-18.6,31.7-35.4,47.9c-19.7,19-29.6,28.5-31.3,29.7c-14.6,10-12.8,12-12.8,12.1
	c-20.3,24.6-11.2,72.2-4.1,109.7c0.8,4.2,3.2,16.5,0.5,31.9c-1.3,7.2-3.4,18.2-11.5,26.3c-9.4,9.4-22.5,10.5-28.4,10.9
	c-26.6,1.9-252,2-559.5,0c-22,0-39.8-16.5-39.8-36.8V114.8C-38,94.5-20.2,78,1.8,78h459.7c30.5,0,58.2,17.6,71.6,45.1
	C540.1,137.4,549.4,151.9,561.7,164.3z"/>
</svg>
