<svg width="717" height="769" viewBox="0 0 717 769" fill="none" xmlns="http://www.w3.org/2000/svg">
<path fill-rule="evenodd" clip-rule="evenodd" d="M999.889 324.127L1002.89 329.787L1005.72 335.511L1008.35 341.295L1010.8 347.133L1013.05 353.022L1015.12 358.955L1016.99 364.928L1018.66 370.936L1020.13 376.973L1021.41 383.035L1022.5 389.116L1023.38 395.212L1024.08 401.318L1024.58 407.428L1024.88 413.538L1025 419.645L1024.93 425.742L1024.68 431.826L1024.24 437.893L1023.62 443.938L1022.83 449.958L1021.87 455.95L1020.74 461.909L1019.44 467.832L1017.99 473.717L1016.38 479.561L1014.62 485.36L1012.71 491.112L1010.66 496.815L1008.47 502.467L1006.15 508.065L1003.69 513.608L1001.12 519.094L998.421 524.521L995.608 529.888L992.682 535.193L989.647 540.435L986.508 545.612L983.267 550.724L979.927 555.77L976.492 560.747L972.964 565.654L969.346 570.491L965.641 575.256L961.851 579.948L957.98 584.566L954.03 589.111L950.005 593.58L945.909 597.975L941.744 602.294L937.514 606.539L933.223 610.708L928.873 614.804L924.469 618.825L920.015 622.773L915.513 626.649L910.968 630.455L906.383 634.19L901.762 637.858L897.109 641.459L892.427 644.997L887.72 648.472L882.991 651.887L878.244 655.244L873.483 658.547L868.711 661.798L863.93 664.999L859.144 668.155L854.357 671.268L849.57 674.341L844.787 677.378L840.01 680.382L835.241 683.357L830.483 686.307L825.737 689.235L821.006 692.144L816.29 695.039L811.592 697.924L806.912 700.801L802.252 703.675L797.611 706.548L792.99 709.425L788.39 712.308L783.81 715.202L779.25 718.107L774.71 721.029L770.188 723.969L765.684 726.929L761.197 729.912L756.724 732.92L752.264 735.955L747.816 739.017L743.377 742.108L738.945 745.229L734.518 748.379L730.093 751.56L725.667 754.77L721.238 758.01L716.802 761.277L712.357 764.571L707.899 767.89L703.426 771.232L698.934 774.594L694.421 777.974L689.883 781.37L685.318 784.78L680.724 788.2L676.098 791.628L671.438 795.063L666.742 798.5L662.007 801.936L657.231 805.37L652.413 808.797L647.55 812.214L642.641 815.617L637.685 819.003L632.679 822.369L627.623 825.709L622.515 829.02L617.354 832.297L612.139 835.536L606.869 838.733L601.545 841.883L596.164 844.98L590.728 848.021L585.236 851.001L579.688 853.914L574.085 856.756L568.426 859.522L562.714 862.207L556.948 864.807L551.129 867.317L545.26 869.734L539.341 872.052L533.374 874.268L527.361 876.378L521.303 878.379L515.204 880.268L509.065 882.04L502.888 883.692L496.675 885.221L490.431 886.622L484.156 887.894L477.855 889.032L471.53 890.033L465.184 890.894L458.82 891.612L452.442 892.185L446.054 892.608L439.659 892.881L433.26 893L426.862 892.963L420.469 892.769L414.083 892.415L407.71 891.901L401.354 891.224L395.017 890.383L388.706 889.379L382.423 888.209L376.173 886.875L369.96 885.375L363.788 883.71L357.661 881.881L351.583 879.888L345.559 877.733L339.592 875.416L333.685 872.94L327.844 870.305L322.07 867.515L316.368 864.572L310.742 861.477L305.193 858.235L299.727 854.847L294.344 851.318L289.049 847.651L283.843 843.849L278.729 839.917L273.71 835.858L268.787 831.676L263.962 827.377L259.237 822.964L254.614 818.441L250.093 813.815L245.676 809.089L241.363 804.268L237.156 799.357L233.055 794.36L229.059 789.284L225.17 784.132L221.387 778.91L217.71 773.622L214.138 768.273L210.672 762.868L207.309 757.411L204.051 751.908L200.894 746.363L197.839 740.78L194.884 735.164L192.026 729.52L189.264 723.854L186.594 718.17L184.015 712.474L181.522 706.771L179.113 701.064L176.783 695.361L174.53 689.665L172.35 683.98L170.237 678.312L168.188 672.664L166.199 667.04L164.265 661.445L162.381 655.882L160.543 650.353L158.747 644.863L156.987 639.414L155.259 634.007L153.558 628.646L151.88 623.333L150.219 618.069L148.571 612.856L146.932 607.694L145.297 602.585L143.66 597.53L142.018 592.529L140.366 587.582L138.699 582.69L137.013 577.852L135.303 573.069L133.565 568.339L131.793 563.663L129.984 559.039L128.133 554.465L126.238 549.942L124.294 545.466L122.299 541.034L120.251 536.646L118.147 532.297L115.986 527.984L113.768 523.705L111.49 519.455L109.154 515.232L106.759 511.03L104.306 506.847L101.797 502.678L99.2315 498.519L96.6129 494.366L93.9434 490.214L91.2255 486.061L88.4626 481.901L85.6579 477.731L82.8155 473.546L79.9395 469.343L77.0343 465.118L74.1048 460.868L71.1559 456.589L68.1929 452.278L65.2213 447.932L62.2469 443.548L59.2753 439.124L56.3126 434.657L53.365 430.145L50.4385 425.587L47.5393 420.98L44.6739 416.324L41.8484 411.617L39.0691 406.859L36.3422 402.049L33.6738 397.187L31.0701 392.273L28.537 387.307L26.0802 382.291L23.7054 377.223L21.4181 372.107L19.2236 366.943L17.1269 361.732L15.1329 356.476L13.2461 351.178L11.4709 345.839L9.8114 340.462L8.27132 335.049L6.85418 329.604L5.56319 324.127L4.40126 318.624L3.37097 313.096L2.47464 307.546L1.71424 301.979L1.09144 296.396L0.607637 290.803L0.263884 285.201L0.0610384 279.594L0 273.985L0.0817973 268.379L0.307558 262.779L0.678481 257.187L1.19581 251.609L1.8608 246.047L2.6747 240.506L3.63872 234.99L4.75401 229.502L6.02166 224.046L7.44263 218.628L9.01776 213.25L10.7478 207.917L12.6332 202.634L14.6744 197.404L16.8716 192.233L19.2248 187.124L21.7337 182.081L24.398 177.11L27.2168 172.214L30.1894 167.397L33.3145 162.664L36.5908 158.02L40.0167 153.467L43.5902 149.01L47.3092 144.654L51.1713 140.401L55.1739 136.255L59.3141 132.221L63.5889 128.301L67.9949 124.498L72.5285 120.816L77.186 117.258L81.9633 113.826L86.8563 110.523L91.8602 107.351L96.9702 104.312L102.181 101.407L107.488 98.6386L112.884 96.007L118.364 93.5131L123.922 91.1572L129.552 88.9395L135.247 86.8595L141 84.9166L146.805 83.1097L152.656 81.4375L158.544 79.8982L164.463 78.4898L170.406 77.2097L176.367 76.0551L182.337 75.023L188.311 74.1097L194.28 73.3115L200.24 72.6242L206.182 72.0433L212.1 71.5642L217.988 71.1818L223.839 70.8908L229.648 70.6857L235.409 70.5607L241.116 70.5098L246.764 70.5269L252.348 70.6057L257.864 70.7396L263.306 70.922L268.67 71.1463L273.954 71.4056L279.153 71.6932L284.265 72.0021L289.286 72.3256L294.215 72.6567L299.049 72.9887L303.787 73.3149L308.428 73.6287L312.971 73.9236L317.415 74.1933L321.761 74.4316L326.008 74.6326L330.157 74.7905L334.21 74.8999L338.168 74.9556L342.032 74.9525L345.805 74.8861L349.488 74.7522L353.085 74.5466L356.599 74.2659L360.032 73.9069L363.388 73.4666L366.671 72.9426L369.884 72.333L373.033 71.6359L376.12 70.8504L379.15 69.9756L382.129 69.0113L385.06 67.9579L387.949 66.8165L390.801 65.5887L393.62 64.2765L396.412 62.8827L399.182 61.4105L401.935 59.8634L404.675 58.2456L407.408 56.5616L410.138 54.8162L412.871 53.0149L415.609 51.163L418.357 49.2665L421.119 47.3316L423.899 45.3645L426.7 43.3717L429.525 41.3598L432.377 39.3357L435.258 37.306L438.17 35.2776L441.116 33.2571L444.096 31.2514L447.113 29.2669L450.167 27.3101L453.258 25.3872L456.387 23.5041L459.555 21.6666L462.76 19.8801L466.002 18.1495L469.28 16.4795L472.595 14.8743L475.943 13.3375L479.325 11.8725L482.739 10.4821L486.182 9.16932L489.654 7.93664L493.152 6.78647L496.675 5.72097L500.221 4.7421L503.788 3.85161L507.373 3.05103L510.974 2.34168L514.589 1.72468L518.217 1.20095L521.854 0.771211L525.499 0.43599L529.149 0.195634L532.802 0.0503064L536.455 0L540.107 0.0445406L543.756 0.183596L547.398 0.416681L551.032 0.74317L554.656 1.1623L558.268 1.67318L561.865 2.27479L565.447 2.96602L569.01 3.74563L572.553 4.61229L576.074 5.56459L579.572 6.60103L583.044 7.72002L586.49 8.91992L589.908 10.199L593.296 11.5555L596.653 12.9876L599.978 14.4935L603.269 16.0711L606.526 17.7186L609.746 19.4339L612.931 21.2151L616.077 23.0601L619.185 24.9667L622.255 26.933L625.284 28.9568L628.273 31.0359L631.221 33.1683L634.128 35.3516L636.993 37.5838L639.817 39.8627L642.599 42.1861L645.338 44.5517L648.036 46.9573L650.692 49.4007L653.306 51.8797L655.879 54.392L658.412 56.9353L660.904 59.5075L663.357 62.1064L665.77 64.7295L668.146 67.3748L670.485 70.0399L672.787 72.7227L675.056 75.4205L677.291 78.1307L679.496 80.8502L681.672 83.5759L683.823 86.3046L685.952 89.0327L688.061 91.7569L690.154 94.4736L692.236 97.1795L694.311 99.871L696.382 102.545L698.455 105.198L700.534 107.827L702.624 110.429L704.73 113.001L706.859 115.541L709.014 118.047L711.202 120.516L713.427 122.946L715.696 125.338L718.014 127.688L720.386 129.997L722.817 132.263L725.313 134.488L727.879 136.671L730.52 138.812L733.24 140.913L736.044 142.975L738.936 145L741.92 146.99L744.998 148.947L748.176 150.874L751.454 152.775L754.836 154.652L758.323 156.51L761.916 158.352L765.618 160.183L769.428 162.007L773.347 163.829L777.374 165.653L781.51 167.484L785.753 169.328L790.101 171.189L794.553 173.073L799.107 174.985L803.759 176.93L808.506 178.913L813.346 180.94L818.273 183.016L823.283 185.146L828.372 187.335L833.533 189.589L838.762 191.911L844.053 194.307L849.399 196.781L854.793 199.338L860.229 201.981L865.699 204.714L871.196 207.541L876.712 210.466L882.239 213.49L887.77 216.618L893.295 219.852L898.807 223.193L904.297 226.644L909.756 230.206L915.176 233.881L920.548 237.668L925.864 241.569L931.115 245.584L936.293 249.712L941.388 253.953L946.394 258.307L951.301 262.771L956.103 267.344L960.79 272.025L965.356 276.812L969.793 281.701L974.094 286.69L978.254 291.776L982.264 296.956L986.12 302.226L989.815 307.582L993.345 313.02L996.704 318.537L999.889 324.127Z" fill="#787879"/>
</svg>
